<svg xmlns="http://www.w3.org/2000/svg" viewBox="0 0 480 320">
<rect x="60" y="16" width="404" height="258" fill="none" stroke="#999"/>
<line x1="60" y1="274.0" x2="464" y2="274.0" stroke="#eee"/>
<text x="54.0" y="278.0" font-family="sans-serif" font-size="11" text-anchor="end" fill="#222">1.0</text>
<line x1="60" y1="209.5" x2="464" y2="209.5" stroke="#eee"/>
<text x="54.0" y="213.5" font-family="sans-serif" font-size="11" text-anchor="end" fill="#222">1.5</text>
<line x1="60" y1="145.0" x2="464" y2="145.0" stroke="#eee"/>
<text x="54.0" y="149.0" font-family="sans-serif" font-size="11" text-anchor="end" fill="#222">2.0</text>
<line x1="60" y1="80.5" x2="464" y2="80.5" stroke="#eee"/>
<text x="54.0" y="84.5" font-family="sans-serif" font-size="11" text-anchor="end" fill="#222">2.5</text>
<line x1="60" y1="16.0" x2="464" y2="16.0" stroke="#eee"/>
<text x="54.0" y="20.0" font-family="sans-serif" font-size="11" text-anchor="end" fill="#222">3.0</text>
<text x="60.0" y="290.0" font-family="sans-serif" font-size="11" text-anchor="middle" fill="#222">0.00</text>
<text x="161.0" y="290.0" font-family="sans-serif" font-size="11" text-anchor="middle" fill="#222">0.25</text>
<text x="262.0" y="290.0" font-family="sans-serif" font-size="11" text-anchor="middle" fill="#222">0.50</text>
<text x="363.0" y="290.0" font-family="sans-serif" font-size="11" text-anchor="middle" fill="#222">0.75</text>
<text x="464.0" y="290.0" font-family="sans-serif" font-size="11" text-anchor="middle" fill="#222">1.00</text>
<line x1="60" y1="200.4" x2="464" y2="200.4" stroke="#888780" stroke-dasharray="2,3"/>
<text x="262.0" y="195.4" font-family="sans-serif" font-size="10" text-anchor="middle" fill="#888780">pi/2</text>
<polyline points="68.1,200.3 86.4,199.9 104.6,199.1 122.9,197.9 141.2,196.2 159.5,193.9 177.7,191.2 196.0,187.8 214.3,183.8 232.6,178.9 250.8,173.1 269.1,166.2 287.4,157.8 305.7,147.8 323.9,135.3 342.2,119.8 360.5,99.8 378.8,73.2 397.1,35.5 415.3,-22.8 433.6,-129.5 451.9,-430.5" fill="none" stroke="#D85A30" stroke-width="2" stroke-dasharray="6,4"/>
<polyline points="68.1,254.6 86.4,247.7 104.6,242.6 122.9,237.9 141.2,233.2 159.5,228.3 177.7,223.1 196.0,217.5 214.3,211.4 232.6,204.6 250.8,196.9 269.1,188.2 287.4,178.2 305.7,166.5 323.9,152.4 342.2,135.3 360.5,113.7 378.8,85.4 397.1,46.1 415.3,-14.0 433.6,-122.7 451.9,-426.3" fill="none" stroke="#378ADD" stroke-width="2"/>
<text x="282.2" y="194.2" font-family="sans-serif" font-size="11" text-anchor="start" fill="#378ADD">odd-wave  (-> 1)</text>
<text x="201.4" y="175.8" font-family="sans-serif" font-size="11" text-anchor="start" fill="#D85A30">isotropic  (-> pi/2)</text>
<text x="240.0" y="314.0" font-family="sans-serif" font-size="12" text-anchor="middle" fill="#222">k_z  (alpha leg;  k_z->0 = slow manifold)</text>
<text x="15.0" y="160.0" font-family="sans-serif" font-size="12" text-anchor="middle" fill="#222" transform="rotate(-90 15 160)">R = <A3D> / <A2D></text>
</svg>