<svg xmlns="http://www.w3.org/2000/svg" viewBox="0 0 480 320">
<rect x="62" y="16" width="402" height="258" fill="none" stroke="#999" stroke-width="1"/>
<line x1="62" y1="274.0" x2="464" y2="274.0" stroke="#eee"/>
<text x="56.0" y="278.0" font-family="sans-serif" font-size="11" text-anchor="end" fill="#222">10^-5</text>
<line x1="62" y1="195.8" x2="464" y2="195.8" stroke="#eee"/>
<text x="56.0" y="199.8" font-family="sans-serif" font-size="11" text-anchor="end" fill="#222">10^-4</text>
<line x1="62" y1="117.6" x2="464" y2="117.6" stroke="#eee"/>
<text x="56.0" y="121.6" font-family="sans-serif" font-size="11" text-anchor="end" fill="#222">10^-3</text>
<line x1="62" y1="39.5" x2="464" y2="39.5" stroke="#eee"/>
<text x="56.0" y="43.5" font-family="sans-serif" font-size="11" text-anchor="end" fill="#222">10^-2</text>
<text x="62.0" y="290.0" font-family="sans-serif" font-size="11" text-anchor="middle" fill="#222">0</text>
<text x="138.6" y="290.0" font-family="sans-serif" font-size="11" text-anchor="middle" fill="#222">2</text>
<text x="215.1" y="290.0" font-family="sans-serif" font-size="11" text-anchor="middle" fill="#222">4</text>
<text x="291.7" y="290.0" font-family="sans-serif" font-size="11" text-anchor="middle" fill="#222">6</text>
<text x="368.3" y="290.0" font-family="sans-serif" font-size="11" text-anchor="middle" fill="#222">8</text>
<text x="444.9" y="290.0" font-family="sans-serif" font-size="11" text-anchor="middle" fill="#222">10</text>
<polyline points="138.6,48.2 176.9,63.2 215.1,71.0 253.4,87.7 291.7,111.5 330.0,139.6 368.3,169.2 406.6,207.6 444.9,245.8" fill="none" stroke="#D85A30" stroke-width="2" stroke-dasharray="6,4"/>
<circle cx="138.6" cy="48.2" r="2.6" fill="#D85A30"/><circle cx="176.9" cy="63.2" r="2.6" fill="#D85A30"/><circle cx="215.1" cy="71.0" r="2.6" fill="#D85A30"/><circle cx="253.4" cy="87.7" r="2.6" fill="#D85A30"/><circle cx="291.7" cy="111.5" r="2.6" fill="#D85A30"/><circle cx="330.0" cy="139.6" r="2.6" fill="#D85A30"/><circle cx="368.3" cy="169.2" r="2.6" fill="#D85A30"/><circle cx="406.6" cy="207.6" r="2.6" fill="#D85A30"/><circle cx="444.9" cy="245.8" r="2.6" fill="#D85A30"/>
<polyline points="81.1,42.9 100.3,90.0 119.4,149.4 138.6,231.3 157.7,255.2 176.9,244.3 196.0,243.4 215.1,243.6" fill="none" stroke="#378ADD" stroke-width="2"/>
<circle cx="81.1" cy="42.9" r="2.6" fill="#378ADD"/><circle cx="100.3" cy="90.0" r="2.6" fill="#378ADD"/><circle cx="119.4" cy="149.4" r="2.6" fill="#378ADD"/><circle cx="138.6" cy="231.3" r="2.6" fill="#378ADD"/><circle cx="157.7" cy="255.2" r="2.6" fill="#378ADD"/><circle cx="176.9" cy="244.3" r="2.6" fill="#378ADD"/><circle cx="196.0" cy="243.4" r="2.6" fill="#378ADD"/><circle cx="215.1" cy="243.6" r="2.6" fill="#378ADD"/>
<text x="240.0" y="314.0" font-family="sans-serif" font-size="12" text-anchor="middle" fill="#222">regulator  (h or d)</text>
<text x="16" y="160" font-family="sans-serif" font-size="12" text-anchor="middle" fill="#222" transform="rotate(-90 16 160)">| ratio(h,d) - 1.31104 |</text>
<text x="184.5" y="148.7" font-family="sans-serif" font-size="11" text-anchor="start" fill="#378ADD">vary h (d=10)</text>
<text x="272.6" y="80.3" font-family="sans-serif" font-size="11" text-anchor="start" fill="#D85A30">vary d (h=6)</text>
</svg>